<svg width="212" height="113" viewBox="0 0 212 113" xmlns="http://www.w3.org/2000/svg" xmlns:xlink="http://www.w3.org/1999/xlink"><title>arrow-4</title><defs><path d="M0 24.232c0-1.657 1.34-3 3-3h151.685V1.586c0-1.66.98-2.086 2.184-.952l51.628 48.596-48.048 56.082c-1.078 1.258-1.94.93-1.927-.714l.164-19.367H3.002c-1.656 0-3-1.335-3-3V24.232z" id="a"/><mask id="c" x="0" y="0" width="208.496" height="106.078" fill="#fff"><use xlink:href="#a"/></mask><path d="M3 30.232c0-1.657 1.34-3 3-3h151.685V7.586c0-1.66.98-2.086 2.184-.952l51.628 48.596-48.048 56.082c-1.078 1.258-1.94.93-1.927-.714l.164-19.367H6.002c-1.656 0-3-1.335-3-3V30.232z" id="b"/><mask id="d" x="0" y="0" width="208.496" height="106.078" fill="#fff"><use xlink:href="#b"/></mask></defs><g stroke-width="4" fill="none" fill-rule="evenodd" opacity=".352"><use stroke="#EC1A3D" mask="url(#c)" xlink:href="#a"/><use stroke="#1B45E1" mask="url(#d)" xlink:href="#b"/></g></svg>
